# xmcd CD database file
#
# Track frame offsets:
#	183
#	14335
#	29453
#	43753
#	57340
#	72028
#	85905
#	99580
#	108945
#	121470
#	134095
#	146273
#	157678
#	168058
#
# Disc length: 2392 seconds
#
# Revision: 2
# Processed by: cddbd v1.5PL3 Copyright (c) Steve Scherf et al.
# Submitted via: CDex 1.50
#
DISCID=b309560e
DTITLE=Jimmy Rogers - Hard Working Man
DYEAR=1992
DGENRE=Blues
TTITLE0=I Used To Have A Woman
TTITLE1=Hard Working Man
TTITLE2=My Little Machine
TTITLE3=Give Love Another Chance
TTITLE4=What's The Matter
TTITLE5=Blues Leave Me Alone
TTITLE6=Sloppy Drunk
TTITLE7=If It Ain't Me
TTITLE8=One Kiss
TTITLE9=I Can't Believe
TTITLE10=What Have I Done
TTITLE11=Trace Of You
TTITLE12=Don't Turn Me Down
TTITLE13=Don't You Know My Baby
EXTD=YEAR: 1992
EXTT0=
EXTT1=
EXTT2=
EXTT3=
EXTT4=
EXTT5=
EXTT6=
EXTT7=
EXTT8=
EXTT9=
EXTT10=
EXTT11=
EXTT12=
EXTT13=
PLAYORDER=
